<svg xmlns="http://www.w3.org/2000/svg" width="232.52" height="308.39" viewBox="0 0 232.52 308.39">
  <path fill="#ffffff" d="M129.724,102.797H26.926V0h102.797V102.797z M129.724,205.594H26.926v102.797h102.797V205.594z M232.521,102.797H129.724 v102.797h102.797V102.797z M106.443,150.961L89.18,120.919c-1.375-2.393-4.43-3.22-6.826-1.844c-2.394,1.375-3.22,4.432-1.844,6.826 c0,0,8.399,14.616,13.733,23.899H0v10h94.243L80.51,183.699c-1.376,2.395-0.551,5.45,1.844,6.826 c0.785,0.451,1.642,0.666,2.486,0.666c1.731,0,3.416-0.9,4.34-2.51l18.031-31.376C108.655,154.81,107.581,152.94,106.443,150.961z"/>
</svg>
